<svg xmlns="http://www.w3.org/2000/svg"
     viewBox="0 0 24 24"
     width="24"
     height="24"
fill="#ffffff">

  <path d="M12 .5C5.65.5.5 5.77.5 12.27c0 5.2 3.44 9.6 8.2 11.16.6.12.82-.27.82-.6
  0-.3-.01-1.1-.02-2.16-3.34.75-4.04-1.66-4.04-1.66-.55-1.42-1.34-1.8-1.34-1.8-1.1-.77.08-.75.08-.75
  1.22.09 1.86 1.28 1.86 1.28 1.08 1.9 2.84 1.35 3.53 1.03.11-.8.42-1.35.76-1.66
  -2.66-.31-5.46-1.36-5.46-6.05 0-1.34.46-2.44 1.22-3.3-.12-.31-.53-1.56.12-3.26
  0 0 1-.33 3.3 1.26a11.1 11.1 0 0 1 6 0c2.3-1.6 3.3-1.26 3.3-1.26.65 1.7.24 2.95.12 3.26
  .76.86 1.22 1.96 1.22 3.3 0 4.7-2.8 5.73-5.47 6.03.43.38.81 1.12.81 2.27
  0 1.64-.02 2.96-.02 3.36 0 .33.22.73.82.6 4.76-1.57 8.2-5.96 8.2-11.16
  C23.5 5.77 18.35.5 12 .5Z"/>
</svg>
