<svg xmlns="http://www.w3.org/2000/svg"
     width="24" height="24"
     viewBox="0 0 24 24"
     fill="none"
     role="img"
     aria-label="default_folder">
  <title>file_type_shorebird</title>

  <defs>
    <linearGradient id="paint0_linear_8158_4131"
      x1="0" y1="0" x2="24" y2="24"
      gradientUnits="userSpaceOnUse">
      <stop stop-color="#D1C2B0"/>
      <stop offset="1" stop-color="#FBEDDD"/>
    </linearGradient>
  </defs>

  <path d="M23.8375 11.2149L21.6211 8.99852C21.7478 9.4442 22.0533 10.8157 22.0709 11.0352L23.8375 11.2149Z"
        fill="currentColor"
        opacity="0.45"/>

  <path fill-rule="evenodd" clip-rule="evenodd"
        d="M19.9881 17.2092L20.0064 17.1856L20.0229 17.1605C21.7623 14.5056 22.3449 12.1999 22.1215 10.2126C21.8981 8.22448 20.8812 6.6694 19.645 5.49143C17.2047 3.16623 13.7742 2.18034 13.2019 2.02655C13.0429 1.98383 12.8545 1.98813 12.6744 2.07294C12.4998 2.15516 12.3826 2.28969 12.3154 2.42355C12.1861 2.68153 12.2153 2.97621 12.3592 3.19851L12.8679 3.98421C12.7233 4.00931 12.5758 4.04946 12.426 4.10706C11.3184 4.53306 10.4314 5.79793 9.82567 8.06929C9.13971 10.6416 7.79501 11.9517 6.49898 12.6402C5.17462 13.3438 3.8363 13.4311 3.15166 13.4311C2.56908 13.4311 2.0885 13.2491 1.74799 13.0613C1.57847 12.9678 1.44806 12.8752 1.36297 12.8087C1.32062 12.7756 1.29009 12.7494 1.27219 12.7335C1.26325 12.7256 1.25751 12.7202 1.25508 12.718L1.25422 12.7172C0.975034 12.4452 0.532114 12.4369 0.242823 12.6989C-0.0477284 12.9621 -0.0821242 13.4064 0.16446 13.7111L0.738761 13.2465C0.16446 13.7111 0.16446 13.7111 0.16446 13.7111L0.165605 13.7126L0.167751 13.7152L0.175025 13.7241C0.181191 13.7316 0.189987 13.7423 0.201358 13.7561C0.2241 13.7835 0.257148 13.8231 0.300074 13.8737C0.385913 13.9747 0.511337 14.1198 0.672904 14.2998C0.995863 14.6596 1.46423 15.16 2.05047 15.7279C3.21897 16.8599 4.87423 18.2783 6.79485 19.3817C8.70933 20.4816 10.9487 21.304 13.2641 21.1523C15.6146 20.9981 17.9362 19.8472 19.9881 17.2092ZM2.1527 14.7903C1.25889 13.8893 0.738761 13.2465 0.738761 13.2465C0.803033 13.3257 11.6704 26.6995 19.4047 16.7554C13.3413 24.5512 5.35241 18.016 2.1527 14.7903Z"
        fill="url(#paint0_linear_8158_4131)"/>

  <path fill-rule="evenodd" clip-rule="evenodd"
        d="M14.2021 10.7837C14.8704 13.0101 11.7067 15.6812 8.72913 15.6812C6.10661 15.6812 1.78351 13.7229 3.55762 11.9873C4.10455 11.4523 4.71507 11.455 5.36938 11.458C5.85245 11.4602 6.35937 11.4625 6.88215 11.2485C7.51877 10.988 7.93853 10.5575 8.34188 10.1439C8.45415 10.0288 8.56515 9.91492 8.67919 9.80643C9.17948 8.88484 10.1557 8.25915 11.2781 8.25915C12.7639 8.25915 13.9936 9.35572 14.2021 10.7837Z"
        fill="currentColor"
        opacity="0.55"/>

  <path d="M17.8975 10.2209C17.2855 10.2209 16.7893 9.72472 16.7893 9.11269C16.7893 8.50067 17.2855 8.00452 17.8975 8.00452C18.5095 8.00452 19.0056 8.50067 19.0056 9.11269C19.0056 9.72472 18.5095 10.2209 17.8975 10.2209Z"
        fill="currentColor"/>
</svg>
