<?xml version="1.0" encoding="iso-8859-1"?>
<!-- Uploaded to: SVG Repo, www.svgrepo.com, Generator: SVG Repo Mixer Tools -->
<svg height="800px" width="800px" version="1.1" id="Layer_1" xmlns="http://www.w3.org/2000/svg" xmlns:xlink="http://www.w3.org/1999/xlink" 
	 viewBox="0 0 511.672 511.672" xml:space="preserve">
<path style="fill:#8C4C4C;" d="M469.039,255.836c0-112.209-32.604-206.711-32.604-206.711H255.84H75.221
	c0,0-32.588,94.502-32.588,206.711c0,102.528,27.623,191.439,32.37,205.993c6.074,27.826,84.696,49.843,180.837,49.843
	c96.118,0,174.756-22.017,180.814-49.843C441.432,447.26,469.039,358.364,469.039,255.836z"/>
<g>
	<path style="fill:#723F3F;" d="M245.175,511.578c3.529,0.062,7.074,0.094,10.665,0.094c3.576,0,7.121-0.031,10.649-0.094V100.654
		h-21.314L245.175,511.578L245.175,511.578z"/>
	<path style="fill:#723F3F;" d="M138.868,80.355c-0.89,3.966-21.611,97.906-21.611,175.481c0,65.864,15.021,200.59,19.925,242.813
		c6.917,1.765,14.272,3.372,22.033,4.81c-3.529-30.122-20.644-179.354-20.644-247.623c0-75.187,20.893-169.892,21.111-170.844
		L138.868,80.355z"/>
	<path style="fill:#723F3F;" d="M352.021,84.992c0.219,0.952,21.111,95.595,21.111,170.844c0,68.269-17.114,217.485-20.643,247.623
		c7.745-1.438,15.115-3.061,22.017-4.81c4.903-42.255,19.926-176.949,19.926-242.813c0-77.575-20.706-171.516-21.58-175.481
		L352.021,84.992z"/>
</g>
<g>
	<path style="fill:#E6E9ED;" d="M45.943,117.737L45.943,117.737L45.943,117.737z"/>
	<path style="fill:#E6E9ED;" d="M255.84,154.557c-83.743,0-169.844-20.611-200.09-28.606c-3.029,15.521-5.887,32.854-8.167,51.498
		c24.516,6.809,116.27,30.402,208.257,30.402c91.996,0,183.719-23.594,208.266-30.402c-2.28-18.644-5.153-35.977-8.183-51.498
		C425.692,133.961,339.716,154.557,255.84,154.557z"/>
	<path style="fill:#E6E9ED;" d="M51.159,359.254c3.451,21.846,7.526,41.317,11.352,57.354
		c37.273,9.713,117.721,25.766,193.329,25.766c75.6,0,156.018-16.053,193.307-25.766c3.841-16.036,7.9-35.508,11.367-57.354
		c-25.047,6.824-116.082,29.841-204.674,29.841C167.24,389.095,76.221,366.078,51.159,359.254z"/>
</g>
<path style="fill:#A85D5D;" d="M437.061,53.294c0,29.434-81.137,53.294-181.221,53.294c-100.092,0-181.228-23.86-181.228-53.294
	C74.612,23.859,155.748,0,255.84,0C355.924,0,437.061,23.859,437.061,53.294z"/>
<path style="fill:#434A54;" d="M181.216,53.294c0,5.887-4.778,10.665-10.665,10.665s-10.649-4.778-10.649-10.665
	s4.763-10.665,10.649-10.665S181.216,47.407,181.216,53.294z"/>
</svg>